HIERARCHY
ROOT Hips
{
	OFFSET 0.000000 83.214638 0.000000
	CHANNELS 6 Xposition Yposition Zposition Xrotation Yrotation Zrotation
	JOINT Pelvis
	{
		OFFSET 0.000000 0.000000 0.000000
		CHANNELS 3 Xrotation Yrotation Zrotation
		JOINT LeftUpLeg
		{
			OFFSET 8.479700 -4.795502 -0.379100
			CHANNELS 3 Xrotation Yrotation Zrotation
			JOINT LeftLeg
			{
				OFFSET 0.024144 -32.555107 0.112900
				CHANNELS 3 Xrotation Yrotation Zrotation
				JOINT LeftFoot
				{
					OFFSET -0.024144 -32.638630 -3.012600
					CHANNELS 3 Xrotation Yrotation Zrotation
					JOINT LeftToeBase
					{
						OFFSET 0.970200 -13.225400 11.864200
						CHANNELS 3 Xrotation Yrotation Zrotation
						End Site
						{
							OFFSET 0.000000 12.319262 0.000000
						}
					}
					JOINT LFootTongue
					{
						OFFSET 1.142400 -1.059800 6.665200
						CHANNELS 3 Xrotation Yrotation Zrotation
						End Site
						{
							OFFSET 0.000000 12.319262 0.000000
						}
					}
				}
				JOINT LeftPantLeg
				{
					OFFSET 0.918482 -16.533964 -2.284700
					CHANNELS 3 Xrotation Yrotation Zrotation
					End Site
					{
						OFFSET 0.350399 24.744368 0.000000
					}
				}
			}
		}
		JOINT RightUpLeg
		{
			OFFSET -8.479700 -4.795502 -0.379100
			CHANNELS 3 Xrotation Yrotation Zrotation
			JOINT RightLeg
			{
				OFFSET -0.023144 -32.555092 0.112900
				CHANNELS 3 Xrotation Yrotation Zrotation
				JOINT RightFoot
				{
					OFFSET 0.023144 -32.638641 -3.012700
					CHANNELS 3 Xrotation Yrotation Zrotation
					JOINT RightToeBase
					{
						OFFSET -0.970200 -13.225400 11.864200
						CHANNELS 3 Xrotation Yrotation Zrotation
						End Site
						{
							OFFSET 0.000000 12.319244 0.000000
						}
					}
					JOINT RFootTongue
					{
						OFFSET -1.142200 -1.059800 6.665200
						CHANNELS 3 Xrotation Yrotation Zrotation
						End Site
						{
							OFFSET 0.000000 12.319243 0.000000
						}
					}
				}
				JOINT RightPantLeg
				{
					OFFSET -0.919482 -16.533978 -2.284800
					CHANNELS 3 Xrotation Yrotation Zrotation
					End Site
					{
						OFFSET -0.350400 24.744419 0.000000
					}
				}
			}
		}
	}
	JOINT Spine
	{
		OFFSET 0.000000 7.722000 1.166200
		CHANNELS 3 Xrotation Yrotation Zrotation
		JOINT Spine1
		{
			OFFSET 0.000000 12.024101 0.248800
			CHANNELS 3 Xrotation Yrotation Zrotation
			JOINT Spine2
			{
				OFFSET 0.000000 11.502998 -0.491200
				CHANNELS 3 Xrotation Yrotation Zrotation
				JOINT Neck
				{
					OFFSET 0.000000 18.430702 -3.123100
					CHANNELS 3 Xrotation Yrotation Zrotation
					JOINT Head
					{
						OFFSET 0.000000 9.051102 1.034000
						CHANNELS 3 Xrotation Yrotation Zrotation
						JOINT HairB
						{
							OFFSET 0.208400 24.786102 24.822300
							CHANNELS 3 Xrotation Yrotation Zrotation
							End Site
							{
								OFFSET 0.000000 32.263779 0.000000
							}
						}
						JOINT HairA
						{
							OFFSET -7.081100 24.428299 23.196600
							CHANNELS 3 Xrotation Yrotation Zrotation
							End Site
							{
								OFFSET 0.000000 32.263779 0.000000
							}
						}
						JOINT Hat
						{
							OFFSET 16.728800 15.048294 -15.439601
							CHANNELS 3 Xrotation Yrotation Zrotation
							End Site
							{
								OFFSET 0.000000 32.263779 0.000000
							}
						}
					}
				}
				JOINT LeftShoulder
				{
					OFFSET 6.197800 13.665199 -4.064700
					CHANNELS 3 Xrotation Yrotation Zrotation
					JOINT LeftArm
					{
						OFFSET 7.778100 -0.187103 -1.709300
						CHANNELS 3 Xrotation Yrotation Zrotation
						JOINT LeftForeArm
						{
							OFFSET 22.049376 0.000000 0.000000
							CHANNELS 3 Xrotation Yrotation Zrotation
							JOINT LeftHand
							{
								OFFSET 23.009392 0.000000 0.000000
								CHANNELS 3 Xrotation Yrotation Zrotation
								JOINT LeftHandThumb1
								{
									OFFSET 3.507191 -2.063065 3.133727
									CHANNELS 3 Xrotation Yrotation Zrotation
									JOINT LeftHandThumb2
									{
										OFFSET 3.101337 -1.790558 1.790558
										CHANNELS 3 Xrotation Yrotation Zrotation
										JOINT LeftHandThumb3
										{
											OFFSET 3.058640 -1.765907 1.765906
											CHANNELS 3 Xrotation Yrotation Zrotation
											End Site
											{
												OFFSET -0.415260 3.926476 -0.049563
											}
										}
									}
								}
								JOINT LeftHandIndex1
								{
									OFFSET 11.334419 -0.901459 3.706815
									CHANNELS 3 Xrotation Yrotation Zrotation
									JOINT LeftHandIndex2
									{
										OFFSET 3.283112 0.000000 0.000000
										CHANNELS 3 Xrotation Yrotation Zrotation
										JOINT LeftHandIndex3
										{
											OFFSET 3.323853 0.000000 0.000000
											CHANNELS 3 Xrotation Yrotation Zrotation
											End Site
											{
												OFFSET -1.135597 3.097809 0.402452
											}
										}
									}
								}
								JOINT LeftHandMiddle1
								{
									OFFSET 11.335861 0.000000 0.000000
									CHANNELS 3 Xrotation Yrotation Zrotation
									JOINT LeftHandMiddle2
									{
										OFFSET 3.410492 0.000000 0.000000
										CHANNELS 3 Xrotation Yrotation Zrotation
										JOINT LeftHandMiddle3
										{
											OFFSET 3.312172 0.000000 0.000000
											CHANNELS 3 Xrotation Yrotation Zrotation
											End Site
											{
												OFFSET -1.150200 3.080154 0.400270
											}
										}
									}
								}
								JOINT LeftHandRing1
								{
									OFFSET 11.514786 -0.013176 -3.003090
									CHANNELS 3 Xrotation Yrotation Zrotation
									JOINT LeftHandRing2
									{
										OFFSET 3.053307 0.000000 0.000000
										CHANNELS 3 Xrotation Yrotation Zrotation
										JOINT LeftHandRing3
										{
											OFFSET 3.295807 0.000000 0.000000
											CHANNELS 3 Xrotation Yrotation Zrotation
											End Site
											{
												OFFSET -1.281006 3.013344 0.375733
											}
										}
									}
								}
								JOINT LeftHandPinky1
								{
									OFFSET 10.518692 -0.960396 -5.730441
									CHANNELS 3 Xrotation Yrotation Zrotation
									JOINT LeftHandPinky2
									{
										OFFSET 2.861649 0.000000 0.000000
										CHANNELS 3 Xrotation Yrotation Zrotation
										JOINT LeftHandPinky3
										{
											OFFSET 2.863380 0.000000 0.000000
											CHANNELS 3 Xrotation Yrotation Zrotation
											End Site
											{
												OFFSET -0.843597 2.711159 0.369971
											}
										}
									}
								}
							}
							JOINT LSleeve
							{
								OFFSET 6.676277 -0.344902 -1.011730
								CHANNELS 3 Xrotation Yrotation Zrotation
								End Site
								{
									OFFSET 0.000000 14.885353 0.000000
								}
							}
						}
					}
				}
				JOINT RightShoulder
				{
					OFFSET -6.197800 13.665199 -4.064700
					CHANNELS 3 Xrotation Yrotation Zrotation
					JOINT RightArm
					{
						OFFSET -7.778100 -0.187103 -1.709300
						CHANNELS 3 Xrotation Yrotation Zrotation
						JOINT RightForeArm
						{
							OFFSET -22.049376 0.000000 0.000000
							CHANNELS 3 Xrotation Yrotation Zrotation
							JOINT RightHand
							{
								OFFSET -23.009392 0.000000 0.000000
								CHANNELS 3 Xrotation Yrotation Zrotation
								JOINT RightHandThumb1
								{
									OFFSET -3.507191 -2.063065 3.133727
									CHANNELS 3 Xrotation Yrotation Zrotation
									JOINT RightHandThumb2
									{
										OFFSET -3.101337 -1.790558 1.790558
										CHANNELS 3 Xrotation Yrotation Zrotation
										JOINT RightHandThumb3
										{
											OFFSET -3.058640 -1.765907 1.765906
											CHANNELS 3 Xrotation Yrotation Zrotation
											End Site
											{
												OFFSET 0.415260 3.926476 -0.049563
											}
										}
									}
								}
								JOINT RightHandIndex1
								{
									OFFSET -11.334419 -0.901459 3.706815
									CHANNELS 3 Xrotation Yrotation Zrotation
									JOINT RightHandIndex2
									{
										OFFSET -3.283112 0.000000 0.000000
										CHANNELS 3 Xrotation Yrotation Zrotation
										JOINT RightHandIndex3
										{
											OFFSET -3.323853 0.000000 0.000000
											CHANNELS 3 Xrotation Yrotation Zrotation
											End Site
											{
												OFFSET 1.135597 3.097809 0.402452
											}
										}
									}
								}
								JOINT RightHandMiddle1
								{
									OFFSET -11.335861 0.000000 0.000000
									CHANNELS 3 Xrotation Yrotation Zrotation
									JOINT RightHandMiddle2
									{
										OFFSET -3.410492 0.000000 0.000000
										CHANNELS 3 Xrotation Yrotation Zrotation
										JOINT RightHandMiddle3
										{
											OFFSET -3.312172 0.000000 0.000000
											CHANNELS 3 Xrotation Yrotation Zrotation
											End Site
											{
												OFFSET 1.150200 3.080154 0.400270
											}
										}
									}
								}
								JOINT RightHandRing1
								{
									OFFSET -11.514786 -0.013176 -3.003090
									CHANNELS 3 Xrotation Yrotation Zrotation
									JOINT RightHandRing2
									{
										OFFSET -3.053307 0.000000 0.000000
										CHANNELS 3 Xrotation Yrotation Zrotation
										JOINT RightHandRing3
										{
											OFFSET -3.295807 0.000000 0.000000
											CHANNELS 3 Xrotation Yrotation Zrotation
											End Site
											{
												OFFSET 1.281006 3.013344 0.375733
											}
										}
									}
								}
								JOINT RightHandPinky1
								{
									OFFSET -10.518692 -0.960396 -5.730441
									CHANNELS 3 Xrotation Yrotation Zrotation
									JOINT RightHandPinky2
									{
										OFFSET -2.861649 0.000000 0.000000
										CHANNELS 3 Xrotation Yrotation Zrotation
										JOINT RightHandPinky3
										{
											OFFSET -2.863380 0.000000 0.000000
											CHANNELS 3 Xrotation Yrotation Zrotation
											End Site
											{
												OFFSET 0.843597 2.711159 0.369971
											}
										}
									}
								}
							}
							JOINT RSleeve
							{
								OFFSET -6.676277 -0.344902 -1.011730
								CHANNELS 3 Xrotation Yrotation Zrotation
								End Site
								{
									OFFSET 0.000000 14.885353 0.000000
								}
							}
						}
					}
				}
				JOINT Backpack
				{
					OFFSET 0.000000 -2.471497 36.677502
					CHANNELS 3 Xrotation Yrotation Zrotation
					End Site
					{
						OFFSET 0.000000 20.427315 0.000000
					}
				}
				JOINT Hood
				{
					OFFSET 0.000000 18.754097 -10.431000
					CHANNELS 3 Xrotation Yrotation Zrotation
					JOINT Hood1
					{
						OFFSET 0.000000 -5.011002 -7.685901
						CHANNELS 3 Xrotation Yrotation Zrotation
						End Site
						{
							OFFSET 0.000000 9.175140 0.000000
						}
					}
				}
				JOINT LHoodieString
				{
					OFFSET 5.250500 16.397697 3.089900
					CHANNELS 3 Xrotation Yrotation Zrotation
					JOINT LHoodieString1
					{
						OFFSET 0.257700 -6.364304 3.694600
						CHANNELS 3 Xrotation Yrotation Zrotation
						JOINT LHoodieString2
						{
							OFFSET 0.000000 -9.643799 2.679100
							CHANNELS 3 Xrotation Yrotation Zrotation
							End Site
							{
								OFFSET 0.000000 10.009018 0.000000
							}
						}
					}
				}
				JOINT RHoodieString
				{
					OFFSET -5.250500 16.397697 3.089900
					CHANNELS 3 Xrotation Yrotation Zrotation
					JOINT RHoodieString1
					{
						OFFSET -0.257700 -6.364304 3.694600
						CHANNELS 3 Xrotation Yrotation Zrotation
						JOINT RHoodieString2
						{
							OFFSET 0.000000 -9.643799 2.679100
							CHANNELS 3 Xrotation Yrotation Zrotation
							End Site
							{
								OFFSET 0.000000 10.009018 0.000000
							}
						}
					}
				}
			}
			JOINT LBackpack_Strap
			{
				OFFSET 15.223200 -7.719803 -6.610900
				CHANNELS 3 Xrotation Yrotation Zrotation
				End Site
				{
					OFFSET 0.000000 16.040596 0.000000
				}
			}
			JOINT RBackpack_Strap
			{
				OFFSET -15.223000 -7.719803 -6.610900
				CHANNELS 3 Xrotation Yrotation Zrotation
				End Site
				{
					OFFSET 0.000000 16.040596 0.000000
				}
			}
		}
	}
	JOINT BoyFacialAnim_Joint
	{
		OFFSET 1.000000 -82.208099 -1.550900
		CHANNELS 3 Xrotation Yrotation Zrotation
		End Site
		{
			OFFSET 0.000000 30.012791 0.000000
		}
	}
}
MOTION
Frames: 4
Frame Time: 0.016667
-0.851549 48.615486 0.526490 0.556056 -175.706166 -8.925062 -0.000000 0.000001 0.000000 -80.697449 -12.427268 14.211450 115.787471 8.176349 3.475656 -31.854797 4.297269 -12.746409 -0.000000 -0.000002 -0.000000 -0.000000 -0.000002 0.000000 0.000002 -0.000002 0.000001 -61.408455 11.126176 -24.532566 105.917533 0.234133 -0.847285 -26.508294 -8.056283 27.125055 -0.000000 0.000001 0.000000 -0.000000 0.000001 0.000000 -0.000000 0.000003 0.000000 4.046923 3.598078 -2.211930 8.251964 6.771409 -4.731506 8.251958 6.771407 -4.731513 -1.987041 28.311167 6.773754 5.084069 36.051828 -22.849327 -0.000002 -0.000000 -0.000000 -0.000002 -0.000000 -0.000000 -0.000002 -0.000000 -0.000000 1.033495 -15.235092 -11.647762 3.042445 -0.761212 -32.016361 40.133563 -33.388191 -1.908176 12.866395 10.638189 2.322266 -9.419877 -10.451162 8.422294 2.321125 6.714507 2.170925 -0.000001 -0.000001 0.000000 -1.239088 -9.024531 -4.969420 -0.126835 0.207656 -21.714391 -0.000002 -0.000001 -0.000000 1.309898 -1.012388 -8.080139 -0.178458 -0.773442 -14.430110 0.000000 -0.000000 0.000000 -0.365400 2.944776 -4.498892 -0.505473 -2.597487 -30.199507 0.000001 0.000001 -0.000002 0.029769 5.968255 0.715913 -0.699249 -5.770474 -39.699320 0.000001 0.000001 -0.000002 0.000003 0.000000 -0.000000 3.185205 -18.297167 12.806539 12.807458 -13.875003 59.330527 29.940800 40.956888 -3.738876 19.089484 -1.945258 12.311401 -7.852782 4.769987 -9.664427 -0.642358 -0.093878 -1.289340 0.000002 0.000001 -0.000001 -1.233003 0.595987 8.695222 0.120538 -1.119643 16.859798 -0.000001 -0.000002 0.000003 -1.142351 -1.774136 0.545311 -0.357888 1.142254 22.116013 -0.000001 0.000001 -0.000000 1.909919 -0.146211 -2.803251 -0.619903 3.110106 28.344742 -0.000001 -0.000001 0.000000 4.769423 -2.279014 -7.778118 -1.320420 7.677253 37.620194 -0.000005 0.000001 -0.000001 0.000002 -0.000000 0.000001 -0.000000 -0.000002 -0.000000 -0.000000 -0.000002 -0.000000 -0.000000 -0.000002 -0.000000 -0.000000 -0.000002 -0.000000 -0.000000 -0.000002 -0.000000 -0.000000 0.000000 0.000001 -0.000000 -0.000002 -0.000000 -0.000000 -0.000002 -0.000000 -0.000000 0.000000 0.000001 0.000001 -0.000001 0.000002 0.000001 -0.000001 0.000002 -0.000000 0.000001 0.000000 
-0.854410 48.615601 0.520177 0.533476 -175.710168 -8.926883 -0.000000 -0.000000 0.000000 -80.715112 -12.426372 14.207173 115.790039 8.176305 3.475577 -31.862703 4.299279 -12.746587 -0.000000 0.000002 -0.000000 -0.000000 0.000002 -0.000000 -0.000001 0.000003 0.000000 -61.427764 11.121612 -24.548432 105.918250 0.232914 -0.847415 -26.512035 -8.046146 27.103123 0.000000 0.000001 0.000000 0.000000 0.000001 0.000000 0.000000 0.000003 0.000001 4.041694 3.595730 -2.211389 8.241336 6.766912 -4.730122 8.241345 6.766908 -4.730119 -1.988031 28.342464 6.708602 5.079927 36.041173 -22.785392 0.000001 0.000000 -0.000000 0.000001 0.000000 -0.000000 0.000001 0.000000 -0.000000 1.032237 -15.314486 -11.643143 3.086107 -0.688674 -32.029462 40.144563 -33.392645 -1.914900 12.845074 10.616992 2.348276 -9.419896 -10.451147 8.422290 2.321131 6.714507 2.170924 -0.000003 0.000002 0.000000 -1.239135 -9.024844 -4.949879 -0.126837 0.207657 -21.714387 -0.000000 -0.000001 -0.000004 1.310111 -1.010952 -8.062261 -0.178461 -0.773444 -14.430107 0.000001 0.000000 0.000002 -0.365312 2.945781 -4.487028 -0.505473 -2.597484 -30.199511 0.000000 0.000001 -0.000000 0.029751 5.969885 0.729941 -0.699250 -5.770479 -39.699313 0.000000 0.000002 0.000000 -0.000004 -0.000000 -0.000000 3.178410 -18.230238 12.777573 12.845288 -13.905121 59.356687 29.929404 40.938692 -3.736779 19.065799 -1.958733 12.297315 -7.852773 4.769978 -9.664433 -0.642352 -0.093878 -1.289340 -0.000005 0.000001 0.000002 -1.233002 0.595982 8.695216 0.120538 -1.119640 16.859801 0.000002 -0.000001 0.000003 -1.142347 -1.774153 0.545298 -0.357882 1.142258 22.116009 0.000005 0.000001 0.000000 1.909931 -0.146226 -2.803234 -0.619905 3.110107 28.344742 -0.000002 -0.000001 0.000000 4.769430 -2.279016 -7.778124 -1.320424 7.677251 37.620187 -0.000003 -0.000000 0.000002 0.000001 -0.000001 -0.000001 0.000002 0.000000 -0.000000 0.000002 0.000000 -0.000000 0.000002 0.000000 -0.000000 0.000002 0.000000 -0.000000 0.000002 0.000000 -0.000000 -0.000002 0.000001 0.000001 0.000002 0.000000 -0.000000 0.000002 0.000000 -0.000000 -0.000002 0.000001 0.000001 0.000001 -0.000001 -0.000000 0.000001 -0.000001 -0.000000 -0.000000 -0.000000 0.000000 
-0.860427 48.616173 0.513698 0.516092 -175.700128 -8.928016 0.000000 -0.000000 0.000001 -80.732590 -12.415599 14.201484 115.792252 8.176080 3.475495 -31.871039 4.294730 -12.735759 -0.000000 0.000000 0.000000 -0.000000 0.000000 0.000000 -0.000005 -0.000001 0.000001 -61.426876 11.110746 -24.566059 105.918291 0.229685 -0.847804 -26.533555 -8.046075 27.091728 -0.000000 -0.000002 0.000000 -0.000000 -0.000002 0.000000 -0.000003 -0.000003 -0.000002 4.038583 3.593368 -2.210831 8.234950 6.762118 -4.728768 8.234952 6.762116 -4.728761 -1.961544 28.352935 6.666017 5.081366 36.036659 -22.765780 0.000000 -0.000000 -0.000000 0.000000 -0.000000 -0.000000 0.000000 -0.000000 -0.000000 1.018267 -15.384832 -11.671198 3.130074 -0.613957 -31.998432 40.157052 -33.422431 -1.934990 12.833473 10.604155 2.361223 -9.418930 -10.451639 8.419007 2.321128 6.714508 2.170924 -0.000003 0.000001 0.000002 -1.238328 -9.020193 -4.898271 -0.126835 0.207657 -21.714391 0.000001 0.000000 -0.000002 1.310624 -1.007222 -8.016509 -0.178458 -0.773441 -14.430110 0.000001 0.000000 0.000000 -0.365105 2.948529 -4.454891 -0.505473 -2.597486 -30.199504 -0.000001 0.000000 -0.000002 0.035308 5.973111 0.766556 -0.699251 -5.770478 -39.699313 0.000001 0.000001 -0.000000 -0.000000 -0.000000 0.000000 3.169452 -18.205174 12.731748 12.862355 -13.921450 59.407667 29.931047 40.882350 -3.744462 19.093910 -1.984755 12.297558 -7.852783 4.769979 -9.664446 -0.642356 -0.093880 -1.289344 -0.000002 0.000000 0.000001 -1.233016 0.595995 8.695212 0.120538 -1.119644 16.859798 -0.000000 0.000000 0.000002 -1.142369 -1.774138 0.545300 -0.357882 1.142259 22.116006 0.000002 -0.000002 0.000001 1.909920 -0.146224 -2.803244 -0.619904 3.110106 28.344740 -0.000003 -0.000001 0.000000 4.769409 -2.279011 -7.778119 -1.320420 7.677249 37.620190 -0.000003 -0.000001 0.000003 0.000000 0.000001 0.000002 -0.000002 -0.000000 0.000002 -0.000002 -0.000000 0.000002 -0.000002 -0.000000 0.000002 -0.000002 -0.000000 0.000002 -0.000002 -0.000000 0.000002 -0.000003 0.000000 0.000000 -0.000002 -0.000000 0.000002 -0.000002 -0.000000 0.000002 -0.000003 0.000000 0.000000 -0.000000 -0.000001 -0.000000 -0.000000 -0.000001 -0.000000 0.000000 -0.000000 0.000001 
-0.865752 48.616943 0.506777 0.498870 -175.691112 -8.929178 -0.000000 0.000000 -0.000000 -80.746981 -12.404190 14.196427 115.795721 8.176753 3.475141 -31.883285 4.290386 -12.725598 -0.000000 0.000002 -0.000000 -0.000000 0.000002 0.000000 0.000001 0.000001 -0.000000 -61.426309 11.101410 -24.581794 105.918359 0.225768 -0.847826 -26.552357 -8.046329 27.082516 0.000000 0.000002 0.000000 0.000000 0.000002 0.000000 0.000002 -0.000000 0.000001 4.034731 3.592262 -2.208526 8.227048 6.760016 -4.723983 8.227049 6.760017 -4.723989 -1.937310 28.365917 6.632017 5.105503 36.028285 -22.760313 -0.000000 0.000000 -0.000000 -0.000000 0.000000 -0.000000 -0.000000 0.000000 -0.000000 1.010117 -15.419005 -11.688380 3.153026 -0.589277 -31.984628 40.162629 -33.418077 -1.949331 12.827814 10.613321 2.381297 -9.417393 -10.452414 8.413792 2.321128 6.714508 2.170929 -0.000003 0.000001 0.000000 -1.237253 -9.013927 -4.828706 -0.126838 0.207655 -21.714387 0.000001 -0.000001 -0.000004 1.311334 -1.002222 -7.954882 -0.178457 -0.773441 -14.430108 0.000003 0.000000 0.000000 -0.360598 2.951152 -4.408631 -0.505471 -2.597482 -30.199507 -0.000001 0.000001 -0.000000 0.043686 5.977966 0.821842 -0.699251 -5.770476 -39.699320 0.000002 0.000003 -0.000001 -0.000001 -0.000001 0.000000 3.165851 -18.194350 12.713012 12.873442 -13.941526 59.432686 29.941493 40.850955 -3.760543 19.119788 -2.010046 12.308803 -7.852771 4.769958 -9.664433 -0.642360 -0.093879 -1.289339 -0.000002 0.000001 0.000000 -1.233007 0.595980 8.695228 0.120538 -1.119645 16.859796 -0.000003 -0.000000 0.000002 -1.142359 -1.774134 0.545322 -0.357887 1.142255 22.116011 0.000004 -0.000000 0.000002 1.909925 -0.146218 -2.803231 -0.619907 3.110109 28.344740 0.000003 -0.000003 0.000002 4.769428 -2.279026 -7.778105 -1.320420 7.677247 37.620194 0.000001 -0.000001 0.000000 0.000001 -0.000000 0.000000 0.000000 0.000001 0.000000 0.000000 0.000001 0.000000 0.000000 0.000001 0.000000 0.000000 0.000001 0.000000 0.000000 0.000001 0.000000 -0.000001 0.000001 -0.000000 0.000000 0.000001 0.000000 0.000000 0.000001 0.000000 -0.000001 0.000001 -0.000000 -0.000000 0.000000 -0.000000 -0.000000 0.000000 -0.000000 -0.000000 0.000000 -0.000000 
